<?xml version="1.0" ?><!DOCTYPE svg  PUBLIC '-//W3C//DTD SVG 1.1//EN'  'http://www.w3.org/Graphics/SVG/1.1/DTD/svg11.dtd'><svg enable-background="new 0 0 128 128" version="1.1" viewBox="0 0 128 128" xml:space="preserve" xmlns="http://www.w3.org/2000/svg" xmlns:xlink="http://www.w3.org/1999/xlink"><g id="Layer_1"><rect fill="#F4F5F5" height="1520" opacity="0" width="727.938" x="-379.984" y="-1111"/></g><g id="Layer_2"><g><circle cx="64" cy="64" fill="#F18614" r="64"/><g><defs><circle cx="64" cy="64" id="SVGID_109_" r="64"/></defs><clipPath id="SVGID_2_"><use overflow="visible" xlink:href="#SVGID_109_"/></clipPath><polygon clip-path="url(#SVGID_2_)" fill="#E47216" points="53.947,29.543 58.114,33.69 97.101,33.69 99.308,30.492 128,59.382      128,128 55.536,128 22.422,94.966 29.615,86.373 42.486,87.15 34.72,79.359 34.623,79.001 29.844,74.275 41.731,59.078    "/></g><path d="M42.343,48.543V30.843c0-1.042,0.852-1.894,1.894-1.894h8.336c1.042,0,1.894,0.852,1.894,1.894v17.699    c0,1.042-0.852,1.894-1.894,1.894h-8.336C43.196,50.437,42.343,49.584,42.343,48.543z" fill="#FFB202"/><path d="M66.967,95.143h-0.972c-0.775,0-1.408-0.634-1.408-1.408V82.193c0-0.775,0.634-1.408,1.408-1.408h0.972    c0.775,0,1.408,0.634,1.408,1.408v11.541C68.375,94.509,67.742,95.143,66.967,95.143z" fill="#253647"/><path d="M74.556,95.143h-0.995c-0.768,0-1.397-0.628-1.397-1.397V82.418c0-0.768,0.628-1.397,1.397-1.397h0.995    c0.768,0,1.397,0.628,1.397,1.397v11.328C75.953,94.514,75.324,95.143,74.556,95.143z" fill="#253647"/><path d="M59.387,95.143H58.42c-0.776,0-1.411-0.635-1.411-1.411V82.137c0-0.776,0.635-1.411,1.411-1.411h0.966    c0.776,0,1.411,0.635,1.411,1.411v11.594C60.798,94.508,60.163,95.143,59.387,95.143z" fill="#253647"/><path d="M48.762,74.723H31.063c-1.042,0-1.894-0.852-1.894-1.894v-8.336c0-1.042,0.852-1.894,1.894-1.894h17.699    c1.042,0,1.894,0.852,1.894,1.894v8.336C50.657,73.871,49.804,74.723,48.762,74.723z" fill="#FFB202"/><path d="M92.63,80.699H38.009c-2.605,0-4.736-2.131-4.736-4.736V36.714c0-2.605,2.131-4.736,4.736-4.736H92.63    c2.605,0,4.736,2.131,4.736,4.736v39.249C97.366,78.568,95.235,80.699,92.63,80.699z" fill="#ECEEEE"/><g><path d="M67.429,64.215c-1.567,0-2.842-1.274-2.842-2.842V33.769c0-1.567,1.274-2.842,2.842-2.842h28.468     c1.567,0,2.842,1.274,2.842,2.842v27.604c0,1.567-1.274,2.842-2.842,2.842H67.429z" fill="#334A63"/><g><path d="M95.897,32.821c0.513,0,0.947,0.434,0.947,0.947v27.605c0,0.513-0.434,0.947-0.947,0.947H67.428      c-0.513,0-0.947-0.434-0.947-0.947V33.768c0-0.513,0.434-0.947,0.947-0.947H95.897 M95.897,29.032H67.428      c-2.605,0-4.736,2.131-4.736,4.736v27.605c0,2.605,2.131,4.736,4.736,4.736h28.468c2.605,0,4.736-2.131,4.736-4.736V33.768      C100.633,31.163,98.501,29.032,95.897,29.032L95.897,29.032z" fill="#253647"/></g></g><g><g><path d="M40.592,57.67c-1.306,0-2.368-1.062-2.368-2.368V39.239c0-1.306,1.062-2.368,2.368-2.368H56.22      c1.306,0,2.368,1.062,2.368,2.368v16.062c0,1.306-1.062,2.368-2.368,2.368H40.592z" fill="#253647"/><path d="M56.22,37.345c1.046,0,1.894,0.848,1.894,1.894v16.063c0,1.046-0.848,1.894-1.894,1.894H40.592      c-1.046,0-1.894-0.848-1.894-1.894V39.239c0-1.046,0.848-1.894,1.894-1.894H56.22 M56.22,36.398H40.592      c-1.567,0-2.842,1.275-2.842,2.842v16.063c0,1.567,1.275,2.842,2.842,2.842H56.22c1.567,0,2.842-1.275,2.842-2.842V39.239      C59.062,37.672,57.787,36.398,56.22,36.398L56.22,36.398z" fill="#FFFFFF"/></g><path d="M55.051,55.075H44.83c-0.504,0-0.912-0.408-0.912-0.912V40.379c0-0.504,0.408-0.912,0.912-0.912h10.222     c0.504,0,0.912,0.408,0.912,0.912v13.784C55.963,54.667,55.555,55.075,55.051,55.075z" fill="#F0D1AD"/><path d="M41.246,46.097h0.122c0.489,0,0.886-0.397,0.886-0.886v-4.858c0-0.489-0.397-0.886-0.886-0.886h-0.122     c-0.489,0-0.886,0.397-0.886,0.886v4.858C40.36,45.7,40.757,46.097,41.246,46.097z" fill="#979797"/><path d="M41.246,55.075h0.122c0.489,0,0.886-0.397,0.886-0.886v-4.858c0-0.489-0.397-0.886-0.886-0.886h-0.122     c-0.489,0-0.886,0.397-0.886,0.886v4.858C40.36,54.678,40.757,55.075,41.246,55.075z" fill="#EF5134"/></g><path d="M81.77,101.15H51.192c-1.731,0-2.854-1.824-2.075-3.37l1.684-3.341c0.395-0.784,1.198-1.278,2.075-1.278    h27.21c0.877,0,1.68,0.494,2.075,1.278l1.684,3.341C84.624,99.325,83.501,101.15,81.77,101.15z" fill="#253647"/><path d="M32.695,83.972h46.009c1.634,0,2.958,1.324,2.958,2.958v0c0,1.634-1.324,2.958-2.958,2.958H32.695    c-0.582,0-1.131,0.267-1.491,0.725l-2.635,3.359c-0.718,0.916-1.817,1.45-2.981,1.45h-1.945c-1.046,0-1.894-0.848-1.894-1.894    V80.331c0-1.046,0.848-1.894,1.894-1.894h1.945c1.164,0,2.263,0.535,2.981,1.45l2.635,3.359    C31.564,83.704,32.113,83.972,32.695,83.972z" fill="#253647"/><circle cx="81.662" cy="47.571" fill="#3B5674" r="12.122" stroke="#253647" stroke-miterlimit="10" stroke-width="1.8944"/><g><g><circle cx="81.663" cy="47.571" fill="#5A7DB0" r="11.288"/></g><path d="M81.662,39.361c-4.534,0-8.21,3.676-8.21,8.21c0,4.534,3.676,8.21,8.21,8.21     c4.534,0,8.21-3.676,8.21-8.21C89.872,43.037,86.197,39.361,81.662,39.361z M81.662,52.623c-2.79,0-5.052-2.262-5.052-5.052     c0-2.79,2.262-5.052,5.052-5.052s5.052,2.262,5.052,5.052C86.715,50.361,84.453,52.623,81.662,52.623z" fill="#B0CDEB"/><circle cx="81.663" cy="47.571" fill="#253647" r="3.079"/></g><path d="M83.845,97.78l-1.684-3.341c-0.34-0.674-0.987-1.112-1.718-1.228c-1.211,1.087-3.507,3.209-4.49,4.516    c-1.124,1.496-0.396,3.422,1.155,3.422h4.662C83.501,101.15,84.624,99.325,83.845,97.78z" fill="#354C63"/><path d="M49.117,97.78l1.684-3.341c0.34-0.674,0.987-1.112,1.718-1.228c1.211,1.087,3.507,3.209,4.49,4.516    c1.124,1.496,0.396,3.422-1.155,3.422h-4.662C49.461,101.15,48.338,99.325,49.117,97.78z" fill="#354C63"/><g><defs><path d="M32.695,83.972h24.314v5.917H32.695c-0.582,0-1.131,0.267-1.491,0.725l-2.635,3.359      c-0.718,0.916-1.817,1.45-2.981,1.45h-1.945c-1.046,0-1.894-0.848-1.894-1.894V80.331c0-1.046,0.848-1.894,1.894-1.894h1.945      c1.164,0,2.263,0.535,2.981,1.45l2.635,3.359C31.564,83.704,32.113,83.972,32.695,83.972z" id="SVGID_111_"/></defs><clipPath id="SVGID_4_"><use overflow="visible" xlink:href="#SVGID_111_"/></clipPath><path clip-path="url(#SVGID_4_)" d="M27.471,84.414c0-0.118-0.025-0.233-0.062-0.346     c-0.009-0.027-0.018-0.054-0.029-0.081c-0.045-0.112-0.101-0.222-0.179-0.328c-0.003-0.004-0.006-0.007-0.009-0.011     c-0.078-0.104-0.175-0.205-0.283-0.303c-0.023-0.021-0.045-0.041-0.069-0.062c-0.118-0.1-0.248-0.198-0.395-0.29     c-0.002-0.001-0.005-0.003-0.007-0.004c-0.148-0.092-0.313-0.178-0.487-0.261c-0.026-0.013-0.052-0.025-0.079-0.037     c-0.369-0.168-0.79-0.313-1.254-0.433c-0.023-0.006-0.045-0.012-0.069-0.018c-0.239-0.06-0.486-0.113-0.745-0.158l-0.001,0v-0.37     c2.15-0.374,3.668-1.276,3.668-2.331c0-1.389-2.628-2.515-5.869-2.516v20.127c3.242-0.001,5.869-1.127,5.869-2.516     c0-1.055-1.518-1.957-3.668-2.331v-0.37l0,0c0.259-0.045,0.507-0.098,0.746-0.158c0.023-0.006,0.045-0.012,0.067-0.018     c0.464-0.12,0.886-0.265,1.255-0.433c0.027-0.012,0.052-0.024,0.078-0.037c0.175-0.083,0.34-0.169,0.488-0.262     c0.002-0.001,0.005-0.002,0.007-0.004c0.147-0.092,0.277-0.19,0.395-0.29c0.024-0.02,0.047-0.041,0.069-0.062     c0.108-0.098,0.205-0.199,0.283-0.303c0.003-0.004,0.006-0.007,0.009-0.011c0.078-0.106,0.134-0.216,0.179-0.328     c0.011-0.027,0.02-0.053,0.029-0.08c0.037-0.113,0.062-0.228,0.062-0.346c0-1.055-1.518-1.957-3.668-2.331v-0.37     C25.953,86.371,27.471,85.469,27.471,84.414z" fill="#354C63"/></g><path d="M63.024,93.172h-0.664c-0.859,0-1.562-0.703-1.562-1.562V77.06c0-0.859,0.703-1.562,1.562-1.562h0.664    c0.859,0,1.562,0.703,1.562,1.562v14.55C64.587,92.469,63.884,93.172,63.024,93.172z" fill="#ECEEEE"/><path d="M70.602,93.172h-0.664c-0.859,0-1.562-0.703-1.562-1.562V77.06c0-0.859,0.703-1.562,1.562-1.562h0.664    c0.859,0,1.562,0.703,1.562,1.562v14.55C72.164,92.469,71.461,93.172,70.602,93.172z" fill="#ECEEEE"/><polygon fill="#CFD9DD" points="43.917,72.515 52.101,80.699 68.825,80.699 52.446,64.32   "/><g><path d="M48.405,73.16c-2.48,0-4.498-2.019-4.498-4.499s2.018-4.499,4.498-4.499s4.499,2.019,4.499,4.499     S50.886,73.16,48.405,73.16z" fill="#8EC63E"/><path d="M48.406,65.583c1.697,0,3.078,1.381,3.078,3.078c0,1.697-1.381,3.078-3.078,3.078     c-1.697,0-3.078-1.381-3.078-3.078C45.327,66.963,46.708,65.583,48.406,65.583 M48.406,62.741c-3.269,0-5.92,2.65-5.92,5.92     c0,3.269,2.65,5.92,5.92,5.92c3.269,0,5.92-2.65,5.92-5.92C54.326,65.391,51.675,62.741,48.406,62.741L48.406,62.741z" fill="#3C9C46"/></g><g><defs><path d="M92.63,80.699H38.009c-2.605,0-4.736-2.131-4.736-4.736V36.714c0-2.605,2.131-4.736,4.736-4.736H92.63      c2.605,0,4.736,2.131,4.736,4.736v39.249C97.366,78.568,95.235,80.699,92.63,80.699z" id="SVGID_113_"/></defs><clipPath id="SVGID_6_"><use overflow="visible" xlink:href="#SVGID_113_"/></clipPath><polygon clip-path="url(#SVGID_6_)" fill="#CFD9DD" points="72.346,73.832 79.644,81.13 97.98,81.13 97.98,78.793 90.932,71.708         "/></g><path d="M89.533,71.019h-15.74c-0.984,0-1.781,0.797-1.781,1.781v0c0,0.984,0.797,1.781,1.781,1.781h15.74    c0.984,0,1.781-0.797,1.781-1.781v0C91.313,71.816,90.516,71.019,89.533,71.019z" fill="#54889F"/></g></g></svg>